<?xml version="1.0" encoding="UTF-8" standalone="no"?>
<!-- Created with Inkscape (http://www.inkscape.org/) -->

<svg
   xmlns:dc="http://purl.org/dc/elements/1.1/"
   xmlns:cc="http://creativecommons.org/ns#"
   xmlns:rdf="http://www.w3.org/1999/02/22-rdf-syntax-ns#"
   xmlns:svg="http://www.w3.org/2000/svg"
   xmlns="http://www.w3.org/2000/svg"
   version="1.1"
   width="161.05072"
   height="45.542156"
   id="svg3023"
   xml:space="preserve"><metadata
     id="metadata3029"><rdf:RDF><cc:Work
         rdf:about=""><dc:format>image/svg+xml</dc:format><dc:type
           rdf:resource="http://purl.org/dc/dcmitype/StillImage" /><dc:title></dc:title></cc:Work></rdf:RDF></metadata><defs
     id="defs3027"><clipPath
       id="clipPath3037"><path
         d="M 0,72 180,72 180,0 0,0 0,72 z"
         id="path3039" /></clipPath></defs><g
     transform="matrix(1.25,0,0,-1.25,-31.89128,67.77103)"
     id="g3031"><g
       id="g3033"><g
         clip-path="url(#clipPath3037)"
         id="g3035"><g
           transform="translate(87.3827,25.7102)"
           id="g3041"><path
             d="M 0,0 -3.998,0 C -4.016,0 -4.027,0.003 -4.037,0.017 L -7.481,4.222 -10.929,0.017 C -10.937,0.003 -10.951,0 -10.967,0 l -3.201,0 c -0.02,0 -0.036,0.01 -0.049,0.031 -0.006,0.012 -0.004,0.034 0.007,0.05 l 5.076,6.231 -5.017,6.173 c -0.015,0.019 -0.015,0.038 -0.008,0.058 0.008,0.012 0.028,0.03 0.044,0.03 l 4,0 c 0.011,0 0.028,-0.008 0.037,-0.024 l 3.022,-3.746 3.076,3.748 c 0.009,0.014 0.024,0.022 0.038,0.022 l 3.259,0 c 0.02,0 0.039,-0.018 0.048,-0.03 0.008,-0.02 0.006,-0.04 -0.009,-0.058 L -5.403,6.768 0.035,0.081 C 0.047,0.065 0.053,0.043 0.042,0.031 0.035,0.01 0.016,0 0,0"
             id="path3043"
             style="fill:#00355f;fill-opacity:1;fill-rule:nonzero;stroke:none" /></g><g
           transform="translate(109.0195,36.0666)"
           id="g3045"><path
             d="m 0,0 c -1.77,0 -2.98,-1.074 -3.325,-2.942 l 6.024,0 0,0.121 C 2.699,-1.327 1.597,0 0,0 M 5.805,-4.857 C 5.795,-4.871 5.777,-4.881 5.76,-4.881 l -9.15,0 c 0.192,-2.131 1.575,-3.344 3.813,-3.344 1.38,0 2.845,0.471 4.912,1.57 0.038,0.023 0.078,-0.009 0.078,-0.048 L 5.407,-9.518 C 5.404,-9.541 5.393,-9.556 5.377,-9.56 3.451,-10.371 1.519,-10.925 0,-10.925 c -3.939,0 -6.796,2.872 -6.796,6.827 0,3.954 2.857,6.825 6.796,6.825 3.594,0 5.903,-2.421 5.903,-5.752 0,-0.538 -0.093,-1.792 -0.098,-1.832"
             id="path3047"
             style="fill:#00355f;fill-opacity:1;fill-rule:nonzero;stroke:none" /></g><g
           transform="translate(133.4111,40.8777)"
           id="g3049"><path
             d="m 0,0 c -1.122,0 -2.035,0.899 -2.035,2.004 0,1.14 0.913,2.063 2.035,2.063 1.122,0 2.035,-0.923 2.035,-2.063 C 2.035,0.899 1.122,0 0,0 m -1.644,-15.167 c -0.032,0 -0.052,0.019 -0.052,0.05 l 0,12.47 c 0,0.025 0.018,0.045 0.04,0.051 l 3.305,0 C 1.676,-2.602 1.69,-2.622 1.69,-2.647 l 0,-12.47 c 0,-0.031 -0.023,-0.05 -0.049,-0.05 l -3.285,0 z"
             id="path3051"
             style="fill:#00355f;fill-opacity:1;fill-rule:nonzero;stroke:none" /></g><g
           transform="translate(93.4262,27.5871)"
           id="g3053"><path
             d="M 0,0 C -0.596,0 -1.206,0.085 -1.907,0.271 L -1.9,8.272 c 0.82,0.261 1.537,0.384 2.243,0.384 2.29,0 3.828,-1.689 3.828,-4.199 C 4.171,1.749 2.534,0 0,0 m 0.899,11.205 c -0.932,0 -1.874,-0.17 -2.861,-0.509 l -3.29,0 c -0.028,0 -0.045,-0.024 -0.045,-0.053 l 0,-20.447 c 0.992,0.136 2.209,0.488 3.391,1.331 l -0.001,6.22 c 0.81,-0.115 1.48,-0.192 2.127,-0.192 4.502,0 7.417,2.699 7.417,6.88 0,3.986 -2.772,6.77 -6.738,6.77"
             id="path3055"
             style="fill:#00355f;fill-opacity:1;fill-rule:nonzero;stroke:none" /></g><g
           transform="translate(125.7494,28.6228)"
           id="g3057"><path
             d="m 0,0 c -1.03,-0.54 -1.949,-0.797 -2.813,-0.797 -2.042,0 -3.263,1.441 -3.263,3.856 0,2.792 1.561,4.599 3.974,4.599 0.666,0 1.315,-0.163 2.102,-0.521 L 0,0 z M 0,16.261 0,9.734 c -0.965,0.275 -1.814,0.404 -2.672,0.404 -3.921,0 -6.879,-2.956 -6.879,-6.88 0,-3.905 2.61,-6.739 6.202,-6.739 1.244,0 2.409,0.313 3.778,1.017 L 0.426,-3.59 c 0.904,0.172 1.942,0.534 2.966,1.259 l 0,19.927 C 2.388,17.462 1.195,17.126 0,16.261"
             id="path3059"
             style="fill:#00355f;fill-opacity:1;fill-rule:nonzero;stroke:none" /></g><g
           transform="translate(146.5507,28.6477)"
           id="g3061"><path
             d="m 0,0 c -0.996,-0.574 -1.85,-0.851 -2.612,-0.851 -2.184,0 -3.492,1.437 -3.492,3.859 0,2.75 1.541,4.597 3.832,4.597 0.614,0 1.358,-0.235 2.272,-0.717 L 0,0 z m 3.396,9.785 c 0,0.077 -0.066,0.139 -0.142,0.139 L 0.585,9.919 c -0.08,0 -0.148,-0.066 -0.148,-0.142 l 0,-0.455 -0.067,0 c -1.233,0.54 -2.286,0.791 -3.32,0.791 -3.695,0 -6.593,-3.067 -6.593,-6.991 0,-3.967 2.593,-6.628 6.453,-6.628 1.031,0 2.354,0.07 3.592,1.495 l 0,-1.603 c 0.875,0.186 1.909,0.557 2.89,1.263 L 3.396,9.785 z"
             id="path3063"
             style="fill:#00355f;fill-opacity:1;fill-rule:nonzero;stroke:none" /></g><g
           transform="translate(64.0712,28.8303)"
           id="g3065"><path
             d="M 0,0 8.296,0.002 C 8.172,-0.925 7.858,-2.01 7.138,-3.117 l -7.119,0 -1.417,10e-4 c -0.029,0 -0.061,-10e-4 -0.095,-10e-4 -1.055,0 -1.924,0.819 -2.028,1.854 -0.005,0.016 -0.012,0.031 -0.013,0.045 l 0,8.498 0,7.865 c 10e-4,0.012 0.008,0.03 0.013,0.04 0.104,1.036 0.973,1.859 2.028,1.859 0.034,0 0.066,-0.005 0.095,-0.005 L 8.278,17.04 C 8.151,16.115 7.837,15.003 7.118,13.9 L 0,13.9 0,9.445 l 7.046,0 c 0.03,0 0.052,-0.021 0.052,-0.049 l 0,-3.089 C 7.098,6.281 7.076,6.258 7.046,6.258 L 0,6.258 0,0.002 0,0 z"
             id="path3067"
             style="fill:#00355f;fill-opacity:1;fill-rule:nonzero;stroke:none" /></g><g
           transform="translate(42.9853,42.7444)"
           id="g3069"><path
             d="m 0,0 -0.602,1.703 -5.102,6.818 0.916,0.228 8.799,-7.605 5.177,1.481 c 0.608,0.157 1.298,0.191 1.825,0.187 -1.627,3.51 -4.605,6.39 -8.536,7.79 -7.772,2.77 -16.316,-1.291 -19.082,-9.064 -0.856,-2.407 -1.057,-4.887 -0.697,-7.247 L -4.901,-1.401 0,0 z"
             id="path3071"
             style="fill:#00355f;fill-opacity:1;fill-rule:nonzero;stroke:none" /></g><g
           transform="translate(54.5439,44.2131)"
           id="g3073"><path
             d="m 0,0 c -0.456,-0.293 -1.123,-0.683 -1.786,-0.895 l -5.189,-1.481 -3.462,-11.113 -0.899,-0.292 0.733,8.487 -0.409,1.763 -4.861,-1.388 -12.852,-3.025 c 1.019,-4.945 4.518,-9.253 9.623,-11.071 7.772,-2.771 16.314,1.291 19.079,9.061 C 1.168,-6.604 1.092,-3.112 0,0"
             id="path3075"
             style="fill:#00355f;fill-opacity:1;fill-rule:nonzero;stroke:none" /></g><g
           transform="translate(43.5317,40.6824)"
           id="g3077"><path
             d="m 0,0 0.409,-1.763 -0.733,-8.488 0.9,0.293 3.462,11.113 5.188,1.481 c 0.664,0.212 1.33,0.601 1.786,0.895 -0.16,0.456 -0.343,0.905 -0.546,1.343 C 9.939,4.878 9.25,4.844 8.642,4.687 L 3.464,3.206 -5.334,10.812 -6.25,10.583 -1.148,3.765 -0.546,2.062 -5.448,0.661 -17.849,-3.646 c 0.039,-0.258 0.084,-0.514 0.136,-0.768 L -4.861,-1.389 0,0 z"
             id="path3079"
             style="fill:#eec218;fill-opacity:1;fill-rule:nonzero;stroke:none" /></g><g
           transform="translate(53.6972,25.4441)"
           id="g3081"><path
             d="m 0,0 c -0.821,0 -1.329,0.642 -1.329,1.427 0,0.841 0.582,1.427 1.329,1.427 0.739,0 1.319,-0.586 1.319,-1.427 C 1.319,0.586 0.739,0 0,0 m 0,3.014 c -0.84,0 -1.56,-0.632 -1.56,-1.587 0,-0.902 0.649,-1.582 1.56,-1.582 0.83,0 1.551,0.629 1.551,1.582 C 1.551,2.382 0.83,3.014 0,3.014"
             id="path3083"
             style="fill:#00355f;fill-opacity:1;fill-rule:nonzero;stroke:none" /></g><g
           transform="translate(53.3241,27.0017)"
           id="g3085"><path
             d="m 0,0 0,0.577 0.39,0 C 0.588,0.577 0.821,0.549 0.821,0.309 0.821,0.022 0.605,0 0.361,0 L 0,0 z m 1.109,0.27 c 0,0.38 -0.233,0.54 -0.684,0.54 l -0.712,0 0,-1.877 0.309,0 0,0.803 0.288,0 0.486,-0.803 0.349,0 -0.526,0.824 c 0.283,0.034 0.49,0.173 0.49,0.513"
             id="path3087"
             style="fill:#00355f;fill-opacity:1;fill-rule:nonzero;stroke:none" /></g><g
           transform="translate(152.8046,36.2087)"
           id="g3089"><path
             d="m 0,0 c -0.822,0 -1.331,0.642 -1.331,1.427 0,0.841 0.582,1.427 1.331,1.427 0.738,0 1.319,-0.586 1.319,-1.427 C 1.319,0.586 0.738,0 0,0 m 0,3.014 c -0.841,0 -1.56,-0.632 -1.56,-1.587 0,-0.902 0.648,-1.582 1.56,-1.582 0.828,0 1.549,0.63 1.549,1.582 0,0.955 -0.721,1.587 -1.549,1.587"
             id="path3091"
             style="fill:#00355f;fill-opacity:1;fill-rule:nonzero;stroke:none" /></g><g
           transform="translate(152.4301,37.7668)"
           id="g3093"><path
             d="m 0,0 0,0.576 0.39,0 C 0.588,0.576 0.821,0.549 0.821,0.309 0.821,0.022 0.605,0 0.362,0 L 0,0 z m 1.11,0.27 c 0,0.379 -0.234,0.54 -0.685,0.54 l -0.712,0 0,-1.877 0.307,0 0,0.802 0.29,0 0.486,-0.802 0.349,0 -0.525,0.824 c 0.281,0.034 0.49,0.172 0.49,0.513"
             id="path3095"
             style="fill:#00355f;fill-opacity:1;fill-rule:nonzero;stroke:none" /></g></g></g></g></svg>