<?xml version="1.0" encoding="UTF-8" standalone="no"?>
<!-- Created with Inkscape (http://www.inkscape.org/) -->

<svg
   xmlns:dc="http://purl.org/dc/elements/1.1/"
   xmlns:cc="http://creativecommons.org/ns#"
   xmlns:rdf="http://www.w3.org/1999/02/22-rdf-syntax-ns#"
   xmlns:svg="http://www.w3.org/2000/svg"
   xmlns="http://www.w3.org/2000/svg"
   version="1.1"
   width="1313.3313"
   height="313.44229"
   id="svg3878">
  <defs
     id="defs12" />
  <metadata
     id="metadata3902">
    <rdf:RDF>
      <cc:Work
         rdf:about="">
        <dc:format>image/svg+xml</dc:format>
        <dc:type
           rdf:resource="http://purl.org/dc/dcmitype/StillImage" />
        <dc:title></dc:title>
      </cc:Work>
    </rdf:RDF>
  </metadata>
  <path
     d="m 3.7578534,51.307291 c 15.0159996,-3.409 25.1449996,-15.863 41.0619996,-13.898 12.979,-5.795 20.37,-15.045 32.18,-22.923 3.57,-8.4220001 30.179997,-15.6960001 27.809997,-7.1840001 -9.530497,2.381 -17.998997,12.3190001 -21.416997,21.0270001 -6.0668,2.6635 -6.4772,22.979 0.53575,8.6188 6.1185,-6.5295 9.4555,-6.2703 2.6534,0.435 2.6661,-2.6026 16.725997,-5.9522 13.36,1.0733 4.194197,-4.8033 1.601997,-0.14925 7.148797,-2.7019 5.0803,5.8145 10.36,11.001 14.268,18.471 6.1326,7.3826 15.444,-4.2904 20.614,3.725 4.1974,-5.5452 9.2915,5.6592 12.874,-4.698 7.6068,-6.205 15.739,-11.471 26.507,-10.478 10.034,4.171 25.874,-11.319 30.686,-4.0451 -7.5829,15.274 8.6111,15.732 16.444,12.29 2.9794,7.8936 9.0049,-4.6673 14.336,-4.4662 7.5448,0.50919 1.2236,10.002 5.3482,15.669 -10.894,3.8304 7.4591,3.511 3.3469,8.7698 11.528,5.9228 1.6486,5.3667 -5.0656,5.9364 -7.6004,-2.3841 -6.2746,5.7874 -8.9435,-1.363 -6.2559,0.39477 -12.067,-3.5525 -10.458,7.3011 3.1392,7.6139 -10.916,-2.6905 -9.8088,-4.9439 4.1188,-0.32033 -17.485,-6.6481 -23.055,-3.3908 -7.1831,11.578 -15.547,5.2349 -22.579,7.3753 -8.7818,-0.45928 -7.7403,12.474 -15.48,13.855 -3.3504,8.489699 -8.3845,6.097999 -3.0183,-1.404 5.2749,-2.7057 3.1034,-11.559 -3.1815,-3.65 -3.9673,-6.0197 -9.6039,18.142999 -11.362,2.2853 2.7805,-15.195 -4.8526,8.589399 -9.0991,10.830999 -5.1412,9.3804 -8.0728,24.981 -17.184,29.595 -7.2987,-4.1954 7.2148,-19.801 -6.3406,-13.198 -1.0499,-8.1619 4.115,-26.028999 -12.368997,-24.166999 4.227,-18.206 -19.066,-8.51 -29.805,-12.292 -12.691,-8.732 -28.877,-10.896 -42.976,-16.211 -10.723,-0.171 -3.227,-15.064 -16.2119996,-14.091 -0.60916,-0.339 -1.5214,-1.444 -0.8295,-2.162 z"
     id="path1390"
     style="fill:none;stroke:#00bcd4;stroke-width:7;stroke-linejoin:round;stroke-miterlimit:4;stroke-opacity:1;stroke-dasharray:none" />
  <path
     d="m 165.89985,307.35329 c 8.1574,-14.709 13.737,-31.257 12.279,-48.614 -1.3394,-15.104 -10.248,-28.001 -15.424,-41.804 2.3364,-8.7415 5.0094,-17.788 -0.35406,-26.917 7.1786,-7.4751 12.388,-24.796 9.7024,-31.794 -3.3311,-4.0278 11.979,1.6633 1.7799,-3.9858 -4.2916,-4.7968 9.4068,4.3062 3.7097,-3.1132 0.66569,-9.2171 -0.66794,-9.755 4.933,-6.364 -2.3575,-11.551 6.0987,2.6631 6.708,-7.7264 3.3374,-6.3471 7.8946,-18.111 6.728,-3.5666 -2.7703,4.5739 -1.4035,21.505 4.853,13.6 0.87726,-11.351 10.857,6.7632 5.489,-5.252 -1.5935,-4.3829 -2.1867,-16.14 1.032,-4.773 2.2906,13.831 3.1669,-9.0956 -2.465,-11.451 -1.9423,-13.428 7.5964,-4.0264 9.148,-1.354 -5.7932,-8.6041 10.447,1.2314 0.23799,-5.887 -13.77,-4.6764 14.756,-4.9551 4.376,-8.828 -10.655,-2.9442 -2.0462,-21.398999 6.2194,-18.175999 3.2763,-5.124 14.309,8.4465 22.024,4.046 5.9676,9.740299 18.512,11.719999 29.336,14.369999 3.6007,2.0556 13.325,12.844 4.6865,17.749 -0.8631,6.7052 14.652,15.628 6.6462,25.955 -4.6725,4.9478 7.291,6.7272 -0.25711,12.22 -0.86596,4.6062 -4.7144,-3.0331 -5.1716,6.3963 3.5585,13.989 -17.374,12.013 -14.083,26.36 1.3861,9.9838 13.511,14.687 17.975,4.139 4.4811,-12.119 11.876,-19.779 23.225,-23.368 15.862,5.3824 13.932,26.289 19.267,39.517 0.7263,10.565 9.5424,15.881 5.17,27.603 1.6138,9.222 -0.28639,14.882 -8.593,10.025 -8.1765,5.0897 -1.0853,19.737 -14.993,22.871 1.1498,11.492 -4.7302,19.313 -10.223,27.565 -4.4415,1.1608 -11.8,0.13666 -17.36,0.48904 -38.867,0.0227 -77.735,0.0453 -116.6,0.068 z"
     id="path1414"
     style="fill:none;stroke:#00bcd4;stroke-width:7;stroke-linejoin:round;stroke-miterlimit:4;stroke-opacity:1;stroke-dasharray:none" />
  <g
     transform="translate(3.5098534,-12.646709)"
     id="text4694"
     style="font-size:40px;font-style:normal;font-weight:normal;line-height:125%;letter-spacing:0px;word-spacing:0px;fill:#009688;fill-opacity:1;font-family:Sans">
    <path
       d="m 364.2746,323.35461 0,-199.0625 55.09765,0 c 15.40355,2e-4 29.34885,3.64603 41.83594,10.9375 12.48684,7.29185 22.28501,17.54575 29.39453,30.76172 7.10922,13.12515 10.75505,27.84518 10.9375,44.16016 l 0,25.83984 c -1.6e-4,16.58862 -3.50927,31.53652 -10.52734,44.84375 -6.92723,13.30732 -16.63425,23.69794 -29.1211,31.17188 -12.48709,7.47396 -26.43239,11.25651 -41.83593,11.34765 l -55.78125,0 m 7.38281,-191.67968 0,184.29687 47.71484,0 c 13.94522,1e-5 26.61448,-3.37238 38.00782,-10.11719 11.48424,-6.83591 20.46209,-16.31507 26.93359,-28.4375 6.4712,-12.21348 9.75245,-25.74862 9.84375,-40.60546 l 0,-25.56641 c -1.6e-4,-14.85664 -3.19026,-28.34621 -9.57031,-40.46875 -6.28921,-12.12223 -15.13034,-21.60139 -26.52344,-28.4375 -11.30219,-6.9269 -23.83473,-10.48158 -37.59766,-10.66406 l -48.80859,0"
       id="path3259"
       style="font-size:280px;font-variant:normal;font-stretch:normal;fill:#009688;fill-opacity:1;font-family:Roboto" />
    <path
       d="m 596.83319,326.08899 c -11.94017,0 -22.92323,-3.1901 -32.94922,-9.57031 -9.93493,-6.47134 -17.72789,-15.31248 -23.3789,-26.52344 -5.65106,-11.21089 -8.47658,-23.65229 -8.47657,-37.32422 l 0,-6.15234 c -10e-6,-13.67179 2.73436,-26.20433 8.20313,-37.59766 5.46872,-11.3931 12.98825,-20.27981 22.55859,-26.66016 9.57026,-6.38006 20.00645,-9.57016 31.3086,-9.57031 16.4973,1.5e-4 29.98687,5.87905 40.46875,17.63672 10.48164,11.75793 15.72252,27.20714 15.72265,46.34766 l 0,7.79297 -110.8789,0 0,8.0664 c -2e-5,12.03131 2.50648,23.19666 7.51953,33.4961 5.10413,10.20836 12.07678,18.22918 20.91797,24.0625 8.93223,5.83334 18.59368,8.75 28.98437,8.75 9.93481,0 18.36579,-1.64062 25.29297,-4.92188 7.01812,-3.37238 13.21603,-8.52212 18.59375,-15.44922 l 5.19531,3.69141 c -11.02876,15.95052 -27.38942,23.92578 -49.08203,23.92578 m -2.73437,-146.01563 c -14.40111,1.5e-4 -26.61463,5.37775 -36.64063,16.13282 -10.02607,10.66418 -15.90497,24.29046 -17.63672,40.8789 l 103.08594,0 0,-1.77734 c -1.2e-4,-10.02594 -2.14205,-19.32281 -6.42578,-27.89063 -4.19282,-8.65873 -10.02615,-15.35794 -17.5,-20.09765 -7.38291,-4.83059 -15.67717,-7.24595 -24.88281,-7.2461"
       id="path3261"
       style="font-size:280px;font-variant:normal;font-stretch:normal;fill:#009688;fill-opacity:1;font-family:Roboto" />
    <path
       d="m 726.57928,311.5968 53.1836,-136.17187 7.92969,0 -57.5586,147.92968 -7.24609,0 -57.42188,-147.92968 7.92969,0 53.18359,136.17187"
       id="path3263"
       style="font-size:280px;font-variant:normal;font-stretch:normal;fill:#009688;fill-opacity:1;font-family:Roboto" />
    <path
       d="m 930.29022,225.46399 -101.99219,0 0,97.89062 -7.38281,0 0,-199.0625 123.32031,0 0,7.38282 -115.9375,0 0,86.13281 101.99219,0 0,7.65625"
       id="path3265"
       style="font-size:280px;font-variant:normal;font-stretch:normal;fill:#009688;fill-opacity:1;font-family:Roboto" />
    <path
       d="m 1027.7707,326.08899 c -11.9402,0 -22.9232,-3.1901 -32.94923,-9.57031 -9.93493,-6.47134 -17.72789,-15.31248 -23.3789,-26.52344 -5.65106,-11.21089 -8.47658,-23.65229 -8.47657,-37.32422 l 0,-6.15234 c -10e-6,-13.67179 2.73436,-26.20433 8.20313,-37.59766 5.46872,-11.3931 12.98825,-20.27981 22.55859,-26.66016 9.57028,-6.38006 20.00648,-9.57016 31.30858,-9.57031 16.4973,1.5e-4 29.9869,5.87905 40.4688,17.63672 10.4816,11.75793 15.7225,27.20714 15.7226,46.34766 l 0,7.79297 -110.87888,0 0,8.0664 c -2e-5,12.03131 2.50648,23.19666 7.51953,33.4961 5.10413,10.20836 12.07678,18.22918 20.91797,24.0625 8.93228,5.83334 18.59368,8.75 28.98438,8.75 9.9348,0 18.3658,-1.64062 25.293,-4.92188 7.0181,-3.37238 13.216,-8.52212 18.5937,-15.44922 l 5.1953,3.69141 c -11.0287,15.95052 -27.3894,23.92578 -49.082,23.92578 m -2.7344,-146.01563 c -14.4011,1.5e-4 -26.61461,5.37775 -36.64061,16.13282 -10.02607,10.66418 -15.90497,24.29046 -17.63672,40.8789 l 103.08593,0 0,-1.77734 c -10e-5,-10.02594 -2.142,-19.32281 -6.4258,-27.89063 -4.1928,-8.65873 -10.0261,-15.35794 -17.5,-20.09765 -7.3829,-4.83059 -15.6771,-7.24595 -24.8828,-7.2461"
       id="path3267"
       style="font-size:280px;font-variant:normal;font-stretch:normal;fill:#009688;fill-opacity:1;font-family:Roboto" />
    <path
       d="m 1206.8723,287.12415 c -2e-4,-17.95568 -15.3126,-30.16921 -45.9375,-36.64063 -18.4116,-3.91919 -31.2175,-8.93221 -38.418,-15.03906 -7.2006,-6.19782 -10.8008,-14.67438 -10.8008,-25.42969 0,-10.84623 4.5573,-19.77851 13.6719,-26.79687 9.2057,-7.01809 21.1458,-10.5272 35.8203,-10.52735 15.9504,1.5e-4 28.7564,3.82827 38.418,11.48438 9.6613,7.56523 14.492,17.81913 14.4921,30.76172 l -7.5195,0 c -10e-5,-9.93478 -4.1928,-18.22904 -12.5781,-24.88282 -8.3855,-6.6535 -19.323,-9.98032 -32.8125,-9.98047 -12.9428,1.5e-4 -23.1967,2.82567 -30.7617,8.47657 -7.5652,5.65117 -11.3477,12.71496 -11.3477,21.1914 0,6.65376 1.4127,11.89464 4.2383,15.72266 2.8255,3.73707 7.4283,7.15504 13.8086,10.25391 6.3801,3.00789 15.677,5.92456 27.8906,8.75 12.2135,2.82559 21.8749,6.15241 28.9844,9.98046 7.1093,3.82819 12.259,8.38548 15.4492,13.67188 3.19,5.19536 4.785,11.57556 4.7852,19.14062 -2e-4,11.6667 -4.7853,21.05471 -14.3555,28.16407 -9.5704,7.10937 -22.103,10.66406 -37.5977,10.66406 -16.5886,0 -29.987,-3.73698 -40.1953,-11.21094 -10.1172,-7.56509 -15.1758,-17.27211 -15.1758,-29.12109 l 7.3829,0 c 0.7291,10.39065 5.2864,18.50262 13.6718,24.33594 8.4766,5.74219 19.9153,8.61328 34.3164,8.61328 13.2161,0 23.9257,-3.05338 32.1289,-9.16016 8.2942,-6.1979 12.4413,-13.67185 12.4415,-22.42187"
       id="path3269"
       style="font-size:280px;font-variant:normal;font-stretch:normal;fill:#009688;fill-opacity:1;font-family:Roboto" />
    <path
       d="m 1271.6769,135.50305 0,39.92188 33.6329,0 0,7.51953 -33.6329,0 0,105 c 0,10.48179 1.6862,18.22918 5.0586,23.24219 3.4635,5.01302 9.2057,7.51953 17.2266,7.51953 4.0103,0 8.8866,-0.41015 14.6289,-1.23047 l 1.2305,6.97265 c -3.0079,1.09375 -8.1576,1.64063 -15.4492,1.64063 -10.7553,0 -18.4571,-2.96224 -23.1055,-8.88672 -4.6485,-6.01561 -7.0183,-15.4492 -7.1094,-28.30078 l 0,-105.95703 -27.3437,0 0,-7.51953 27.3437,0 0,-39.92188 7.5195,0"
       id="path3271"
       style="font-size:280px;font-variant:normal;font-stretch:normal;fill:#009688;fill-opacity:1;font-family:Roboto" />
  </g>
  <text
     x="130.96187"
     y="-26.380939"
     id="text4698"
     xml:space="preserve"
     style="font-size:40px;font-style:normal;font-weight:normal;line-height:125%;letter-spacing:0px;word-spacing:0px;fill:#000000;font-family:Sans"><tspan
       id="tspan4700" /></text>
  <text
     x="351.03677"
     y="144.59425"
     id="text3761"
     xml:space="preserve"
     style="font-size:40px;font-style:normal;font-variant:normal;font-weight:300;font-stretch:normal;line-height:125%;letter-spacing:0px;word-spacing:0px;fill:#000000;fill-opacity:1;stroke:none;font-family:Roboto;-inkscape-font-specification:Roboto Light"><tspan
       x="351.03677"
       y="144.59425"
       id="tspan3763" /></text>
  <text
     x="272.21045"
     y="266.44162"
     id="text3918"
     xml:space="preserve"
     style="font-size:40px;font-style:normal;font-variant:normal;font-weight:300;font-stretch:normal;line-height:125%;letter-spacing:0px;word-spacing:0px;fill:#000000;fill-opacity:1;stroke:none;font-family:Roboto;-inkscape-font-specification:Roboto Light"><tspan
       x="272.21045"
       y="266.44162"
       id="tspan3920" /></text>
  <g
     transform="translate(3.5098534,-12.646709)"
     id="text3886"
     style="font-size:40px;font-style:normal;font-variant:normal;font-weight:300;font-stretch:normal;line-height:125%;letter-spacing:0px;word-spacing:0px;fill:#00796b;fill-opacity:1;stroke:none;font-family:Roboto;-inkscape-font-specification:Roboto Light">
    <path
       d="m 368.26224,56.656082 21.05859,48.410158 21.12891,-48.410158 2.77734,0 0,51.187498 -1.89844,0 0,-48.374998 -21.23437,48.374998 -1.51172,0 -21.12891,-48.128904 0,48.128904 -1.89843,0 0,-51.187498 2.70703,0"
       id="path3242"
       style="font-size:72px;letter-spacing:15.55999279px;fill:#00796b;fill-opacity:1" />
    <path
       d="m 446.15426,107.84358 -1.89844,0 0,-51.187498 1.89844,0 0,51.187498"
       id="path3244"
       style="font-size:72px;letter-spacing:15.55999279px;fill:#00796b;fill-opacity:1" />
    <path
       d="m 512.05801,92.163895 c -0.49223,5.273448 -2.30864,9.328135 -5.44922,12.164065 -3.14066,2.8125 -7.40628,4.21875 -12.79688,4.21875 -3.63283,0 -6.85548,-0.91407 -9.66797,-2.74219 -2.78907,-1.85156 -4.95704,-4.46484 -6.5039,-7.839844 -1.54688,-3.398424 -2.33204,-7.277327 -2.35547,-11.636719 l 0,-7.910156 c -10e-6,-4.359341 0.76171,-8.249962 2.28516,-11.671875 1.52342,-3.445268 3.69139,-6.105422 6.5039,-7.980469 2.83592,-1.874949 6.08201,-2.812448 9.73828,-2.8125 5.34372,5.2e-5 9.59763,1.406301 12.76172,4.21875 3.16402,2.812545 4.99215,6.843791 5.48438,12.09375 l -1.89844,0 c -0.5391,-4.710897 -2.17973,-8.285112 -4.92188,-10.722656 -2.74222,-2.460889 -6.55081,-3.691356 -11.42578,-3.691406 -4.96877,5e-5 -8.98829,1.875048 -12.05859,5.625 -3.04688,3.75004 -4.57032,8.777379 -4.57031,15.082031 l 0,7.523437 c -1e-5,4.031268 0.67968,7.605483 2.03906,10.722657 1.35936,3.093758 3.30467,5.50782 5.83594,7.24219 2.55467,1.73437 5.47263,2.60156 8.7539,2.60156 4.89841,0 8.71872,-1.20703 11.46094,-3.62109 2.76559,-2.41406 4.39449,-6.035149 4.88672,-10.863285 l 1.89844,0"
       id="path3246"
       style="font-size:72px;letter-spacing:15.55999279px;fill:#00796b;fill-opacity:1" />
    <path
       d="m 575.993,107.84358 -1.89844,0 0,-25.38281 -32.69531,0 0,25.38281 -1.89844,0 0,-51.187498 1.89844,0 0,23.90625 32.69531,0 0,-23.90625 1.89844,0 0,51.187498"
       id="path3248"
       style="font-size:72px;letter-spacing:15.55999279px;fill:#00796b;fill-opacity:1" />
    <path
       d="m 608.99049,107.84358 -1.89843,0 0,-51.187498 1.89843,0 0,51.187498"
       id="path3250"
       style="font-size:72px;letter-spacing:15.55999279px;fill:#00796b;fill-opacity:1" />
    <path
       d="m 676.15985,102.35921 c -1.2891,1.78125 -3.55082,3.25781 -6.78516,4.42968 -3.2344,1.17188 -6.7969,1.75782 -10.6875,1.75782 -3.79689,0 -7.18361,-0.92578 -10.16015,-2.77735 -2.97658,-1.85156 -5.30861,-4.46483 -6.9961,-7.83984 -1.66406,-3.374987 -2.51953,-7.195296 -2.5664,-11.460938 l 0,-8.789062 c -1e-5,-4.195278 0.80859,-7.956993 2.42578,-11.285157 1.61718,-3.32808 3.89061,-5.894484 6.82031,-7.699218 2.92967,-1.828074 6.22264,-2.742136 9.87891,-2.742188 5.08591,5.2e-5 9.22262,1.300832 12.41015,3.902344 3.2109,2.601608 5.07418,6.152385 5.58985,10.652344 l -1.89844,0 c -0.63285,-4.078084 -2.33207,-7.206987 -5.09766,-9.386719 -2.76565,-2.179639 -6.43362,-3.269481 -11.0039,-3.269531 -5.15627,5e-5 -9.31642,1.839892 -12.48047,5.519531 -3.16407,3.679728 -4.7461,8.519567 -4.74609,14.519531 l 0,8.15625 c -10e-6,4.00783 0.73827,7.582046 2.21484,10.722656 1.49999,3.140633 3.59764,5.578127 6.29297,7.312497 2.71873,1.71094 5.8242,2.56641 9.3164,2.56641 3.42185,0 6.59763,-0.5039 9.52735,-1.51172 2.92965,-1.00781 4.94527,-2.22656 6.04687,-3.65625 l 0,-14.906249 -15.64453,0 0,-1.933594 17.54297,0 0,17.718753"
       id="path3252"
       style="font-size:72px;letter-spacing:15.55999279px;fill:#00796b;fill-opacity:1" />
    <path
       d="m 732.11438,92.550613 -25.06641,0 -5.69531,15.292967 -2.07422,0 19.16016,-51.187498 2.32031,0 19.16016,51.187498 -2.07422,0 -5.73047,-15.292967 m -24.36328,-1.898437 23.66015,0 -11.8125,-31.710938 -11.84765,31.710938"
       id="path3254"
       style="font-size:72px;letter-spacing:15.55999279px;fill:#00796b;fill-opacity:1" />
    <path
       d="m 800.61969,107.84358 -1.89844,0 -33.04687,-47.953123 0,47.953123 -1.9336,0 0,-51.187498 1.9336,0 33.04687,47.847658 0,-47.847658 1.89844,0 0,51.187498"
       id="path3256"
       style="font-size:72px;letter-spacing:15.55999279px;fill:#00796b;fill-opacity:1" />
  </g>
  <text
     x="1019.5098"
     y="-198.64671"
     id="text3890"
     xml:space="preserve"
     style="font-size:40px;font-style:normal;font-variant:normal;font-weight:300;font-stretch:normal;line-height:125%;letter-spacing:0px;word-spacing:0px;fill:#000000;fill-opacity:1;stroke:none;font-family:Roboto;-inkscape-font-specification:Roboto Light"><tspan
       x="1019.5098"
       y="-198.64671"
       id="tspan3892" /></text>
</svg>
